<svg width="21" height="22" viewBox="0 0 21 22" fill="none" xmlns="http://www.w3.org/2000/svg">
<path d="M10.6168 19.8C9.41577 19.8 8.20624 19.3402 7.29483 18.4291L3.43626 14.572C2.4993 13.6354 2.00527 12.3412 2.06489 11.0214L2.26932 6.75561C2.36302 4.72062 3.97288 3.11136 6.01716 3.00918L10.2761 2.80483C11.6049 2.74523 12.8911 3.23908 13.828 4.17568L17.6866 8.0328C19.5179 9.86345 19.5179 12.8521 17.6866 14.6827L13.9473 18.4206C13.0274 19.3402 11.8263 19.8 10.6168 19.8Z" fill="#33C4C5"/>
<path d="M7.56006 10.8C6.18314 10.8 5.06006 9.67692 5.06006 8.3C5.06006 6.92308 6.18314 5.8 7.56006 5.8C8.93698 5.8 10.0601 6.92308 10.0601 8.3C10.0601 9.67692 8.93698 10.8 7.56006 10.8ZM7.56006 6.95385C6.8216 6.95385 6.21391 7.56154 6.21391 8.3C6.21391 9.03846 6.8216 9.64615 7.56006 9.64615C8.29852 9.64615 8.90621 9.03846 8.90621 8.3C8.90621 7.56154 8.29852 6.95385 7.56006 6.95385Z" fill="white"/>
<path d="M10.7403 15.8C10.5674 15.8 10.3945 15.7363 10.258 15.5999C9.99409 15.3362 9.99409 14.8996 10.258 14.6358L13.8977 10.9978C14.1616 10.7341 14.5983 10.7341 14.8622 10.9978C15.1261 11.2616 15.1261 11.6981 14.8622 11.9619L11.2225 15.5999C11.086 15.7363 10.9131 15.8 10.7403 15.8Z" fill="white"/>
</svg>
