<svg width="21" height="22" viewBox="0 0 21 22" fill="none" xmlns="http://www.w3.org/2000/svg">
<g clip-path="url(#clip0_5_2307)">
<path d="M13.62 16.9971C13.0984 17.3556 12.4421 17.6543 11.6428 17.9189L10.3134 18.3627C6.97322 19.4553 5.21477 18.542 4.12941 15.1534L3.05246 11.782C1.97552 8.3934 2.86736 6.60097 6.20758 5.50844L7.53693 5.0646C7.88189 4.95364 8.21002 4.85975 8.52133 4.8C8.26892 5.32066 8.06699 5.95228 7.89872 6.67779L7.07418 10.2541C6.24964 13.8219 7.335 15.5802 10.8435 16.4252L12.257 16.7666C12.745 16.8861 13.1993 16.9629 13.62 16.9971Z" fill="#77777E" stroke="#77777E" stroke-linecap="round" stroke-linejoin="round"/>
<path d="M19.3493 9.36595L18.5002 12.8232C17.7724 15.809 16.3341 17.0166 13.6308 16.7685C13.1976 16.7354 12.7297 16.661 12.2271 16.5452L10.7715 16.2143C7.15843 15.3955 6.04071 13.6917 6.88983 10.2344L7.73894 6.76886C7.91223 6.06583 8.12018 5.45378 8.38011 4.94925C9.39386 2.94767 11.1181 2.41006 14.012 3.06347L15.459 3.38603C19.0894 4.19659 20.1985 5.90868 19.3493 9.36595Z" fill="#77777E" stroke="white" stroke-linecap="round" stroke-linejoin="round"/>
<path d="M11.62 7.8L15.62 8.8" stroke="white" stroke-linecap="round" stroke-linejoin="round"/>
<path d="M10.62 10.8L12.62 11.8" stroke="white" stroke-linecap="round" stroke-linejoin="round"/>
</g>
<defs>
<clipPath id="clip0_5_2307">
<rect width="20" height="21" fill="white" transform="translate(0.619995 0.299999)"/>
</clipPath>
</defs>
</svg>
