<svg width="14" height="19" viewBox="0 0 14 19" fill="none" xmlns="http://www.w3.org/2000/svg">
<path d="M13.6 7.16341C13.5964 5.47688 12.9101 3.86049 11.6916 2.66783C10.4731 1.47525 8.82171 0.803719 7.09845 0.799999C1.03543 0.799999 -1.68804 8.27812 2.9035 12.031V18.1105C2.9046 18.2853 2.97329 18.4533 3.09568 18.5805C3.21821 18.7078 3.38529 18.7851 3.5634 18.7967C3.74168 18.8085 3.91791 18.7537 4.05655 18.6437L7.09857 16.1924L10.1335 18.6435C10.2371 18.7264 10.3624 18.7789 10.4951 18.7949C10.6279 18.8108 10.7625 18.7896 10.8834 18.7336C11.0052 18.6785 11.1083 18.5907 11.1809 18.4803C11.2536 18.37 11.2927 18.2417 11.2937 18.1105V12.031C12.7564 10.8193 13.6 9.03907 13.6 7.16341ZM9.87193 16.6424L7.9972 15.1261C7.74343 14.9207 7.42445 14.8081 7.09522 14.8081C6.76582 14.8081 6.44684 14.9207 6.19325 15.1261L4.31851 16.6424V12.9173C6.07718 13.7272 8.11314 13.7272 9.87217 12.9173L9.87193 16.6424ZM4.16263 6.94856C4.02288 6.8161 3.97251 6.61734 4.03267 6.43637C4.09284 6.25538 4.25311 6.1237 4.44562 6.09696L5.68365 5.93081C5.85151 5.90577 5.99663 5.80253 6.07275 5.65385L6.62447 4.54597C6.71275 4.37689 6.8904 4.27055 7.08431 4.27055C7.27839 4.27055 7.45588 4.37689 7.54415 4.54597L8.103 5.65385C8.17579 5.80222 8.31886 5.90593 8.48514 5.93081L9.73029 6.10392C9.92279 6.13066 10.0831 6.26234 10.1432 6.44333C10.2034 6.62431 10.1529 6.82308 10.0133 6.95552L9.11474 7.82104C8.9933 7.93557 8.93772 8.10156 8.96614 8.26415L9.17838 9.47588C9.20396 9.65455 9.12879 9.83276 8.98209 9.94186C8.83539 10.051 8.6399 10.074 8.47091 10.0021L7.35322 9.42751C7.20479 9.35116 7.02761 9.35116 6.87915 9.42751L5.76147 10.0021C5.58776 10.1199 5.358 10.1204 5.18367 10.0037C5.00949 9.88684 4.9269 9.67695 4.97617 9.47586L5.1884 8.26413C5.21999 8.10262 5.16693 7.93631 5.04692 7.82102L4.16263 6.94856Z" fill="#77777E"/>
</svg>
