<svg width="41" height="41" viewBox="0 0 41 41" fill="none" xmlns="http://www.w3.org/2000/svg">
<g clip-path="url(#clip0_6_4838)">
<path d="M40.1001 20.9C40.1001 10.1304 31.3696 1.4 20.6001 1.4C9.83055 1.4 1.1001 10.1304 1.1001 20.9C1.1001 31.6696 9.83055 40.4 20.6001 40.4C31.3696 40.4 40.1001 31.6696 40.1001 20.9Z" fill="#EFFBFC" stroke="#00B5B7"/>
<path d="M18.2984 28.4001C18.7148 28.4001 19.0524 28.0626 19.0524 27.6462C19.0524 27.2298 18.7148 26.8922 18.2984 26.8922C17.882 26.8922 17.5444 27.2298 17.5444 27.6462C17.5444 28.0626 17.882 28.4001 18.2984 28.4001Z" stroke="#00B5B7" stroke-width="1.80952" stroke-linecap="round" stroke-linejoin="round"/>
<path d="M26.5923 28.4001C27.0088 28.4001 27.3463 28.0626 27.3463 27.6462C27.3463 27.2298 27.0088 26.8922 26.5923 26.8922C26.1759 26.8922 25.8384 27.2298 25.8384 27.6462C25.8384 28.0626 26.1759 28.4001 26.5923 28.4001Z" stroke="#00B5B7" stroke-width="1.80952" stroke-linecap="round" stroke-linejoin="round"/>
<path d="M12.2671 13.4H15.283L17.3036 23.4956C17.3725 23.8428 17.5614 24.1546 17.8371 24.3765C18.1127 24.5984 18.4577 24.7163 18.8115 24.7095H26.1401C26.4939 24.7163 26.8389 24.5984 27.1146 24.3765C27.3903 24.1546 27.5791 23.8428 27.648 23.4956L28.8544 17.1698H16.0369" stroke="#00B5B7" stroke-width="1.80952" stroke-linecap="round" stroke-linejoin="round"/>
</g>
<defs>
<clipPath id="clip0_6_4838">
<rect width="40" height="40" fill="white" transform="translate(0.600098 0.900002)"/>
</clipPath>
</defs>
</svg>
