<svg width="29" height="28" viewBox="0 0 29 28" fill="none" xmlns="http://www.w3.org/2000/svg">
<g clip-path="url(#clip0_5_2275)">
<path d="M10.821 26.219C11.3542 26.219 11.7865 25.5705 11.7865 24.7707C11.7865 23.9709 11.3542 23.3224 10.821 23.3224C10.2877 23.3224 9.85547 23.9709 9.85547 24.7707C9.85547 25.5705 10.2877 26.219 10.821 26.219Z" stroke="#1C1C28" stroke-width="1.44828" stroke-linecap="round" stroke-linejoin="round"/>
<path d="M23.3725 26.219C23.9058 26.219 24.338 25.5705 24.338 24.7707C24.338 23.9709 23.9058 23.3224 23.3725 23.3224C22.8392 23.3224 22.407 23.9709 22.407 24.7707C22.407 25.5705 22.8392 26.219 23.3725 26.219Z" stroke="#1C1C28" stroke-width="1.44828" stroke-linecap="round" stroke-linejoin="round"/>
<path d="M1.16577 2.08104H5.90558L9.08126 18.4565C9.18962 19.0195 9.48641 19.5252 9.91963 19.8853C10.353 20.2452 10.8951 20.4364 11.4511 20.4254H22.9689C23.525 20.4364 24.0672 20.2452 24.5004 19.8853C24.9337 19.5252 25.2304 19.0195 25.3388 18.4565L27.2347 8.19583H7.09053" stroke="#1C1C28" stroke-width="1.44828" stroke-linecap="round" stroke-linejoin="round"/>
</g>
<defs>
<clipPath id="clip0_5_2275">
<rect width="28" height="27" fill="white" transform="translate(0.200195 0.650002)"/>
</clipPath>
</defs>
</svg>
