<svg width="18" height="18" viewBox="0 0 18 18" fill="none" xmlns="http://www.w3.org/2000/svg">
<g clip-path="url(#clip0_5_2318)">
<path d="M8.79194 0.300996C4.23178 0.231329 0.509823 3.82044 0.421498 8.38028C0.408565 9.04969 0.47547 9.7014 0.613363 10.3264C0.846789 11.3847 0.985563 12.4617 0.985563 13.5455V15.6404C0.985563 15.9614 1.24573 16.2216 1.56672 16.2216H3.66162C4.74539 16.2216 5.82239 16.3604 6.88073 16.5938C7.50574 16.7316 8.15741 16.7986 8.82681 16.7856C13.3866 16.6973 16.9757 12.9755 16.9062 8.4154C16.8382 3.96442 13.2429 0.368942 8.79194 0.300996Z" fill="#77777E"/>
<path d="M4.78372 10.2529C5.48891 10.2529 6.06059 9.68125 6.06059 8.97605C6.06059 8.27085 5.48891 7.69917 4.78372 7.69917C4.07852 7.69917 3.50684 8.27085 3.50684 8.97605C3.50684 9.68125 4.07852 10.2529 4.78372 10.2529Z" fill="#EFFBFC"/>
<path d="M8.39504 10.2529C9.10023 10.2529 9.67191 9.68125 9.67191 8.97605C9.67191 8.27085 9.10023 7.69917 8.39504 7.69917C7.68984 7.69917 7.11816 8.27085 7.11816 8.97605C7.11816 9.68125 7.68984 10.2529 8.39504 10.2529Z" fill="#EFFBFC"/>
<path d="M12.0059 10.2529C12.7111 10.2529 13.2827 9.68125 13.2827 8.97605C13.2827 8.27085 12.7111 7.69917 12.0059 7.69917C11.3007 7.69917 10.729 8.27085 10.729 8.97605C10.729 9.68125 11.3007 10.2529 12.0059 10.2529Z" fill="#EFFBFC"/>
</g>
<defs>
<clipPath id="clip0_5_2318">
<rect width="17" height="17" fill="white" transform="translate(0.419922 0.299999)"/>
</clipPath>
</defs>
</svg>
