<svg width="30" height="30" viewBox="0 0 30 30" fill="none" xmlns="http://www.w3.org/2000/svg">
<mask id="mask0_225_4609" style="mask-type:alpha" maskUnits="userSpaceOnUse" x="0" y="0" width="30" height="30">
<rect width="30" height="30" fill="#D9D9D9"/>
</mask>
<g mask="url(#mask0_225_4609)">
<path d="M8.75006 26.25C8.06256 26.25 7.47402 26.0052 6.98444 25.5156C6.49485 25.026 6.25006 24.4375 6.25006 23.75V7.5H5.00006V5H11.2501V3.75H18.7501V5H25.0001V7.5H23.7501V23.75C23.7501 24.4375 23.5053 25.026 23.0157 25.5156C22.5261 26.0052 21.9376 26.25 21.2501 26.25H8.75006ZM21.2501 7.5H8.75006V23.75H21.2501V7.5ZM11.2501 21.25H13.7501V10H11.2501V21.25ZM16.2501 21.25H18.7501V10H16.2501V21.25Z" fill="white"/>
</g>
</svg>
