<svg width="28" height="24" viewBox="0 0 28 24" fill="none" xmlns="http://www.w3.org/2000/svg">
<path d="M13.8933 2.87762L13.9999 3.00238L14.1064 2.87762C16.4138 0.176951 20.6819 -0.917996 24.1341 1.43563C25.9635 2.69015 27.1146 4.80875 27.1931 7.03151C27.2781 9.57066 26.2002 11.8682 24.2141 14.3319C22.2258 16.7981 19.342 19.4134 15.839 22.5894L15.6922 22.7228C14.7324 23.6067 13.2539 23.6075 12.2941 22.7361L12.1608 22.6161L12.0878 22.5499C8.6177 19.397 5.75684 16.7977 3.78071 14.3469C1.79276 11.8814 0.715055 9.58395 0.806668 7.04495C0.885134 4.80867 2.03649 2.68994 3.86586 1.43551C7.31758 -0.931006 11.5856 0.176578 13.8933 2.87762ZM13.9007 20.9657L13.9999 21.0648L14.099 20.9657L14.2298 20.8348C17.3996 17.9647 20.0398 15.5721 21.8864 13.4144C23.7321 11.2577 24.8067 9.31164 24.8067 7.33323C24.8067 4.58914 22.7439 2.52638 19.9999 2.52638C17.9266 2.52638 15.9037 3.83526 15.1576 5.67304H12.8548C12.0962 3.83572 10.0737 2.52638 7.99991 2.52638C5.25582 2.52638 3.19305 4.58914 3.19305 7.33323C3.19305 9.31164 4.26765 11.2577 6.1134 13.4144C7.96001 15.5721 10.6001 17.9647 13.7699 20.8348L13.9007 20.9657Z" fill="#77777E" stroke="white" stroke-width="0.280374"/>
</svg>
