<svg width="15" height="16" viewBox="0 0 15 16" fill="none" xmlns="http://www.w3.org/2000/svg">
<path d="M8.12 4.05025H6.87V7.80025H1.87C1.53847 7.80025 1.22053 7.66855 0.986111 7.43413C0.751691 7.19971 0.619995 6.88177 0.619995 6.55025V5.30025C0.619995 4.96873 0.751691 4.65079 0.986111 4.41636C1.22053 4.18194 1.53847 4.05025 1.87 4.05025H3.455C3.14491 3.5133 3.04543 2.88028 3.17586 2.27411C3.3063 1.66793 3.65734 1.13185 4.16083 0.769967C4.66432 0.408083 5.28433 0.246216 5.90047 0.315796C6.51659 0.385377 7.0849 0.68144 7.495 1.1465C7.9051 0.68144 8.4734 0.385377 9.08953 0.315796C9.70567 0.246216 10.3257 0.408083 10.8292 0.769967C11.3327 1.13185 11.6837 1.66793 11.8141 2.27411C11.9446 2.88028 11.8451 3.5133 11.535 4.05025H13.12C13.4515 4.05025 13.7695 4.18194 14.0039 4.41636C14.2383 4.65079 14.37 4.96873 14.37 5.30025V6.55025C14.37 6.88177 14.2383 7.19971 14.0039 7.43413C13.7695 7.66855 13.4515 7.80025 13.12 7.80025H8.12V4.05025ZM4.37 2.80025C4.37 3.13177 4.50169 3.44971 4.73611 3.68413C4.97053 3.91855 5.28848 4.05025 5.62 4.05025H6.87V2.80025C6.87 2.46873 6.7383 2.15078 6.50388 1.91636C6.26946 1.68194 5.95152 1.55025 5.62 1.55025C5.28848 1.55025 4.97053 1.68194 4.73611 1.91636C4.50169 2.15078 4.37 2.46873 4.37 2.80025ZM8.12 4.05025H9.37C9.61722 4.05025 9.8589 3.97694 10.0645 3.83958C10.27 3.70223 10.4302 3.50701 10.5248 3.2786C10.6195 3.05019 10.6442 2.79886 10.596 2.55639C10.5477 2.31391 10.4287 2.09118 10.2539 1.91636C10.0791 1.74155 9.85634 1.6225 9.61386 1.57427C9.37139 1.52603 9.12005 1.55079 8.89165 1.6454C8.66324 1.74001 8.46801 1.90022 8.33066 2.10579C8.19331 2.31135 8.12 2.55302 8.12 2.80025V4.05025ZM13.12 9.05025H8.12V15.3002H10.62C11.283 15.3002 11.9189 15.0369 12.3878 14.568C12.8566 14.0992 13.12 13.4633 13.12 12.8002V9.05025ZM6.87 15.3002V9.05025H1.87V12.8002C1.87 13.4633 2.13339 14.0992 2.60223 14.568C3.07106 15.0369 3.70696 15.3002 4.37 15.3002H6.87Z" fill="#77777E"/>
</svg>
