<svg width="28" height="24" viewBox="0 0 28 24" fill="none" xmlns="http://www.w3.org/2000/svg">
<g clip-path="url(#clip0_289_29)">
<g clip-path="url(#clip1_289_29)">
<path d="M13.8933 2.87762L13.9999 3.00238L14.1064 2.87762C16.4138 0.176951 20.6819 -0.917996 24.1341 1.43563C25.9635 2.69015 27.1146 4.80875 27.1931 7.03151C27.2781 9.57066 26.2002 11.8682 24.2141 14.3319C22.2258 16.7981 19.342 19.4134 15.839 22.5894L15.6922 22.7228C14.7324 23.6067 13.2539 23.6075 12.2941 22.7361L12.1608 22.6161L12.0878 22.5499C8.6177 19.397 5.75684 16.7977 3.78071 14.3469C1.79276 11.8814 0.715055 9.58395 0.806668 7.04495C0.885134 4.80867 2.03649 2.68994 3.86586 1.43551C7.31758 -0.931006 11.5856 0.176578 13.8933 2.87762ZM13.9007 20.9657L13.9999 21.0648L14.099 20.9657L14.2298 20.8348C17.3996 17.9647 20.0398 15.5721 21.8864 13.4144C23.7321 11.2577 24.8067 9.31164 24.8067 7.33323C24.8067 4.58914 22.7439 2.52638 19.9999 2.52638C17.9266 2.52638 15.9037 3.83526 15.1576 5.67304H12.8548C12.0962 3.83572 10.0737 2.52638 7.99991 2.52638C5.25582 2.52638 3.19305 4.58914 3.19305 7.33323C3.19305 9.31164 4.26765 11.2577 6.1134 13.4144C7.96001 15.5721 10.6001 17.9647 13.7699 20.8348L13.9007 20.9657Z" fill="#FF48AB" stroke="#FF48AB" stroke-width="0.280374"/>
</g>
</g>
<path d="M13.8197 5.91559C13.5345 5.59873 13.4449 5.12662 13.1925 4.76974C12.7707 4.1735 12.4549 3.28526 11.7571 2.93638C11.2489 2.6823 10.2205 2.84786 9.73681 3.04494C8.88784 3.39082 8.04787 3.61805 7.2461 4.0762C5.40281 5.12951 5.24035 7.24372 6.27515 9.09381C6.43915 9.38703 6.68735 9.99403 7.05312 10.1009C7.51398 10.2357 8.16427 10.0817 8.47638 9.71498C9.17344 8.89594 9.61802 6.13243 8.80204 5.21602C8.23348 4.57748 7.14522 5.90826 6.8541 6.24728C6.81832 6.28895 5.64491 8.02779 6.1485 7.63436C6.7743 7.14545 6.98115 6.20154 7.06518 5.45725C7.17241 4.50745 6.46722 5.124 5.96758 5.5055C5.48893 5.87096 5.00862 6.31562 4.5805 6.73577C4.20591 7.1034 3.3121 8.37496 3.50702 7.88765C3.90003 6.90514 4.52896 6.10419 4.78554 5.03509C4.80325 4.96132 5.11652 3.8328 4.72524 4.17872C4.03397 4.78984 3.56004 5.6548 3.20548 6.49454C2.91331 7.18652 4.27074 5.6634 4.30308 5.63214C5.02397 4.93528 5.96146 4.04608 6.92647 3.6842C7.5511 3.44996 5.97348 4.62009 5.46099 5.04716" stroke="#FF48AB" stroke-linecap="round"/>
<path d="M7.63198 7.00116C8.20138 7.00116 8.81999 8.28778 9.07937 8.7139C9.35206 9.1619 10.6042 10.2282 9.53771 10.4266C7.82923 10.7445 6.32594 8.75618 5.81068 7.35095C5.75193 7.19071 5.67801 6.68575 5.67801 6.85642C5.67801 8.31072 5.82765 9.69908 6.3233 11.084C6.51221 11.6118 6.95694 12.6013 6.85401 11.4519C6.7196 9.95094 6.37033 8.51623 6.33536 6.99513C6.32132 6.38408 6.21601 5.59367 6.76355 5.1678C7.35512 4.70769 8.50214 5.63524 8.92257 5.97593C9.36561 6.33494 9.77094 6.74279 10.1046 7.20621C10.2678 7.43293 10.4143 7.83867 10.6594 7.99624C10.7893 8.07972 10.67 7.67173 10.5931 7.5379C10.4189 7.23502 10.1779 7.02118 9.92368 6.79008C9.51779 6.4211 9.0429 6.10307 8.66927 5.70454C8.38983 5.40647 8.18586 5.05829 7.89733 4.76977C7.28289 4.15533 6.58795 4.12299 5.76244 4.20288C5.51507 4.22682 4.80005 4.42548 5.02668 4.32349C5.27137 4.21338 5.49978 4.10844 5.72625 3.96165C6.09804 3.72067 6.37852 3.43885 6.84798 3.41888C8.27368 3.35821 9.75501 4.13066 10.8404 4.99894C11.4012 5.44762 11.7663 6.09724 12.3481 6.50664C12.5175 6.62585 13.5428 7.45452 13.4276 6.8323C13.2818 6.04498 13.4757 7.45128 13.6025 7.71882C13.9849 8.52629 15.2297 7.70127 15.7373 7.44744C16.9627 6.83476 17.3768 5.51635 18.4994 4.70343C18.6451 4.59793 18.9092 4.48974 19.0181 4.35365C19.1029 4.24762 18.7736 4.47197 18.6502 4.52854C17.9887 4.83172 17.346 5.17285 16.6842 5.47537C16.0602 5.76061 15.4147 5.99375 14.7905 6.27747C14.6683 6.333 14.3547 6.51666 14.4045 6.39205C14.516 6.11341 15.4156 5.64011 15.665 5.4814" stroke="#FF48AB" stroke-width="3" stroke-linecap="round"/>
<path d="M4.91821 8.08667C5.23765 8.08667 5.32269 8.17863 5.58763 8.36409C6.01568 8.66372 6.5199 8.79071 6.95662 9.06366C8.1563 9.81346 9.34199 10.4858 10.6716 11.0297C11.5527 11.3902 12.0832 11.5744 13.0598 11.5604C13.8943 11.5485 14.1877 10.794 14.4227 10.0889C14.5995 9.55845 14.828 9.27511 15.2429 8.89479C15.6185 8.5505 16.2512 8.47752 16.5757 8.15301C16.7633 7.96545 16.106 8.40248 15.858 8.49676C15.0489 8.80445 14.1159 8.83772 13.2648 8.9551C13.072 8.9817 12.9154 9.12215 12.7341 9.19633C12.1972 9.41597 11.4581 9.28076 10.8887 9.28076" stroke="#FF48AB" stroke-width="5" stroke-linecap="round"/>
<path d="M5.67805 10.3663C5.67805 10.5446 5.62573 10.7201 5.7866 10.8005" stroke="#FF48AB" stroke-width="5" stroke-linecap="round"/>
<path d="M18.3789 4.61296C18.8101 4.22959 19.8996 4.37404 20.0132 4.99893C20.2506 6.30484 20.5953 6.92655 19.6694 8.147C19.1356 8.85071 18.1583 9.48296 17.3295 9.78134C16.686 10.013 16.2962 10.4611 15.8218 10.9091C15.2459 11.453 14.1863 11.9191 13.4517 12.2057C12.7137 12.4937 12.1786 12.6602 11.3832 12.646C10.6963 12.6337 9.93006 12.5319 9.30856 12.2117C8.97111 12.0379 8.71947 11.8237 9.21207 12.2178C10.2533 13.0507 11.4998 12.9841 12.7582 12.9716C14.098 12.9584 15.197 12.6372 16.2681 11.8258C17.6214 10.8005 19.8359 10.117 20.7429 8.60534C21.4112 7.49147 21.6679 6.25247 22.0697 5.04718" stroke="#FF48AB" stroke-width="5" stroke-linecap="round"/>
<path d="M23.3724 6.78406C23.3724 7.59291 22.5426 8.50507 22.0637 9.06369C21.7069 9.48002 21.2558 9.93744 20.8154 10.2578C20.5762 10.4317 20.4875 10.6459 20.2907 10.8428C20.1226 11.0109 20.6358 10.5148 20.8214 10.3663C20.9404 10.2712 21.0982 10.175 21.1772 10.0407C21.3163 9.80429 21.3044 10.1499 21.1772 10.2819C20.7508 10.7247 20.3225 11.2701 19.7901 11.5604C19.3524 11.7992 18.9953 12.1859 18.5478 12.4289C18.2745 12.5772 17.6163 13.2518 17.8362 13.0319C17.9832 12.8849 18.2069 12.64 18.4031 12.5615C19.0574 12.2998 18.3962 12.8458 18.2161 13.0259C18.1291 13.1129 17.805 13.3938 17.6854 13.3938C17.3898 13.3938 18.158 13.0251 18.4332 12.9174C19.303 12.577 18.6329 13.2604 18.3247 13.5687C17.9141 13.9792 17.3303 13.9925 16.9195 14.3286C16.8249 14.406 16.5406 14.5878 16.5335 14.7085C16.5168 14.9924 16.7754 14.8057 16.9677 14.8171C17.1887 14.8301 16.6457 15.6732 16.425 15.6855C15.7876 15.7209 15.3223 15.2126 14.7966 14.9497C14.1003 14.6016 13.3364 14.3646 12.6256 14.0572C12.2536 13.8963 11.8202 13.8551 11.4315 13.7255C11.0944 13.6131 10.7116 13.2858 10.4123 13.0862C9.89642 12.7423 9.30436 12.4109 8.76587 12.1032C8.54615 11.9777 8.49237 11.7927 8.33768 11.669C8.09395 11.474 8.12681 11.9229 8.24722 11.9886C8.74343 12.2593 9.17595 12.7418 9.74888 12.8691C10.05 12.936 10.2177 13.6072 10.4786 13.8159C10.5921 13.9067 10.8682 13.957 11.0214 14.0572C11.2825 14.2279 11.6584 14.4748 11.9501 14.5758C12.321 14.7042 12.6704 14.8915 12.9512 15.1427C13.3988 15.5432 14.2153 15.5778 14.7725 15.7699C15.2174 15.9233 15.1223 16.1937 15.1223 16.6082C15.1223 16.9443 14.0018 16.5648 13.8317 16.4514C13.4266 16.1813 12.9513 16.0293 12.5713 15.7337C12.3228 15.5405 12.2823 15.5064 11.9742 15.4623C11.7157 15.4254 11.7406 15.0968 11.4857 15.0402C11.3496 15.0099 11.2104 14.8664 11.2144 14.9256C11.2285 15.1373 11.5883 15.2668 11.733 15.3598C11.988 15.5237 12.3025 15.688 12.517 15.9026C12.7103 16.0959 12.6651 16.264 12.9271 16.4454C13.3763 16.7563 13.4592 17.0407 13.8197 17.4224C14.0551 17.6717 13.7589 18.2604 14.0368 18.3993" stroke="#FF48AB" stroke-width="5" stroke-linecap="round"/>
<path d="M10.5629 10.8005C10.5629 11.0977 10.8666 11.6734 11.0634 11.8921C11.2476 12.0967 11.5577 12.9056 11.2986 13.1646C10.6571 13.8061 9.38113 11.6007 8.93457 11.4519" stroke="#FF48AB" stroke-width="5" stroke-linecap="round"/>
<path d="M8.2832 11.9946C8.2832 12.5908 8.89915 12.7999 9.20591 13.243C9.64543 13.8779 10.1003 14.3204 10.7799 14.6602C11.1506 14.8456 11.4098 15.3402 11.6725 15.6613C11.8026 15.8204 12.6254 16.6552 12.6254 16.0111" stroke="#FF48AB" stroke-width="5" stroke-linecap="round"/>
<path d="M21.4182 10.9091C21.3959 10.8895 20.8204 11.9228 20.5498 12.1032" stroke="#FF48AB" stroke-width="5" stroke-linecap="round"/>
<defs>
<clipPath id="clip0_289_29">
<rect width="28" height="24" fill="white"/>
</clipPath>
<clipPath id="clip1_289_29">
<rect width="28" height="24" fill="white"/>
</clipPath>
</defs>
</svg>
