<svg width="70" height="70" viewBox="0 0 70 70" fill="none" xmlns="http://www.w3.org/2000/svg">
<mask id="mask0_481_60" style="mask-type:alpha" maskUnits="userSpaceOnUse" x="15" y="15" width="40" height="40">
<rect x="15" y="15" width="40" height="40" fill="#D9D9D9"/>
</mask>
<g mask="url(#mask0_481_60)">
<path d="M23.3333 50C22.4167 50 21.6319 49.6736 20.9792 49.0208C20.3264 48.3681 20 47.5833 20 46.6667V23.3333C20 22.4167 20.3264 21.6319 20.9792 20.9792C21.6319 20.3264 22.4167 20 23.3333 20H46.6667C47.5833 20 48.3681 20.3264 49.0208 20.9792C49.6736 21.6319 50 22.4167 50 23.3333V46.6667C50 47.5833 49.6736 48.3681 49.0208 49.0208C48.3681 49.6736 47.5833 50 46.6667 50H23.3333ZM23.3333 46.6667H46.6667V23.3333H23.3333V46.6667ZM25 43.3333H45L38.75 35L33.75 41.6667L30 36.6667L25 43.3333Z" fill="#A9A9A9"/>
</g>
</svg>
