<svg width="22" height="19" viewBox="0 0 22 19" fill="none" xmlns="http://www.w3.org/2000/svg">
<path d="M19.0456 8.8875H6.86058C6.688 8.8875 6.54126 8.94595 6.42388 9.06333C6.30652 9.18069 6.24808 9.32743 6.24808 9.5C6.24808 9.67257 6.30652 9.81931 6.42388 9.93667C6.54126 10.054 6.688 10.1125 6.86058 10.1125H19.0456L17.1796 11.9786C17.0484 12.1097 16.9797 12.2548 16.9821 12.4128C16.9845 12.5695 17.0524 12.7138 17.1789 12.8448L17.1796 12.8454C17.3116 12.9775 17.4619 13.0442 17.6287 13.0386C17.7925 13.0331 17.9346 12.9702 18.0529 12.8519L20.7334 10.1714C20.9239 9.98093 21.0207 9.75643 21.0207 9.5C21.0207 9.24357 20.9239 9.01907 20.7334 8.8286L18.0529 6.14806C17.9216 6.01672 17.7754 5.94819 17.6155 5.95061C17.4562 5.953 17.3106 6.02348 17.1795 6.15455L17.1789 6.15519C17.0514 6.28727 16.9874 6.43622 16.9929 6.60049C16.9984 6.7623 17.0614 6.90325 17.1796 7.0214L19.0456 8.8875ZM0.995756 18.0042L1.03097 17.969L0.995758 18.0042C1.35928 18.3677 1.80075 18.55 2.3173 18.55H12.637C13.1536 18.55 13.595 18.3677 13.9585 18.0042C14.3221 17.6407 14.5043 17.1992 14.5043 16.6827V13.7404C14.5043 13.5678 14.4459 13.4211 14.3285 13.3037C14.2111 13.1863 14.0644 13.1279 13.8918 13.1279C13.7193 13.1279 13.5725 13.1863 13.4552 13.3037C13.3378 13.4211 13.2793 13.5678 13.2793 13.7404V16.6827C13.2793 16.8728 13.2187 17.0255 13.0993 17.1449C12.9798 17.2644 12.8271 17.325 12.637 17.325H2.3173C2.12718 17.325 1.97451 17.2644 1.85506 17.1449C1.73562 17.0255 1.675 16.8728 1.675 16.6827V2.3173C1.675 2.12718 1.73562 1.97451 1.85506 1.85506C1.97451 1.73562 2.12718 1.675 2.3173 1.675H12.637C12.8271 1.675 12.9798 1.73562 13.0993 1.85506C13.2187 1.97451 13.2793 2.12718 13.2793 2.3173V5.25962C13.2793 5.43218 13.3378 5.57892 13.4552 5.69629C13.5725 5.81367 13.7193 5.87212 13.8918 5.87212C14.0644 5.87212 14.2111 5.81367 14.3285 5.69629C14.4459 5.57892 14.5043 5.43218 14.5043 5.25962V2.3173C14.5043 1.80075 14.3221 1.35928 13.9585 0.995756C13.595 0.632249 13.1536 0.45 12.637 0.45H2.3173C1.80075 0.45 1.35928 0.632249 0.995758 0.995755L0.995756 0.995757C0.63225 1.35928 0.45 1.80075 0.45 2.3173V16.6827C0.45 17.1992 0.63225 17.6407 0.995756 18.0042Z" fill="#1C1C28" stroke="black" stroke-width="0.1"/>
</svg>
