<svg width="15" height="13" viewBox="0 0 15 13" fill="none" xmlns="http://www.w3.org/2000/svg">
<path d="M13.5827 7.01005C13.544 6.91873 13.5241 6.82057 13.5241 6.72139C13.5241 6.62221 13.544 6.52405 13.5827 6.43273L14.6633 3.89392C14.807 3.55838 14.8656 3.19263 14.8342 2.82901C14.8027 2.46541 14.6822 2.11515 14.4831 1.80925C14.284 1.50334 14.0127 1.25121 13.6929 1.07518C13.3732 0.899148 13.015 0.804632 12.6501 0.799999H2.28767C1.92273 0.804632 1.56456 0.899148 1.24484 1.07518C0.925138 1.25121 0.653746 1.50334 0.454687 1.80925C0.255629 2.11515 0.135042 2.46541 0.103595 2.82901C0.0721488 3.19263 0.130813 3.55838 0.274397 3.89392L1.35505 6.43273C1.39373 6.52405 1.41367 6.62221 1.41367 6.72139C1.41367 6.82057 1.39373 6.91873 1.35505 7.01005L0.274397 9.54886C0.130813 9.8844 0.0721488 10.2502 0.103595 10.6138C0.135042 10.9774 0.255629 11.3276 0.454687 11.6335C0.653746 11.9394 0.925138 12.1916 1.24484 12.3676C1.56456 12.5437 1.92273 12.6382 2.28767 12.6428H12.6501C13.0169 12.6418 13.3778 12.5499 13.7005 12.3754C14.0231 12.2009 14.2975 11.9492 14.4991 11.6427C14.7007 11.3363 14.8233 10.9846 14.8558 10.6192C14.8884 10.2539 14.8299 9.88611 14.6856 9.54886L13.5827 7.01005ZM5.24837 3.76069C5.39476 3.76069 5.53786 3.80411 5.65958 3.88544C5.78131 3.96677 5.87617 4.08237 5.93219 4.21762C5.98822 4.35287 6.00287 4.50169 5.97432 4.64527C5.94575 4.78885 5.87527 4.92073 5.77174 5.02425C5.66823 5.12776 5.53635 5.19826 5.39276 5.22682C5.24919 5.25538 5.10036 5.24072 4.96511 5.1847C4.82986 5.12868 4.71427 5.03381 4.63293 4.91209C4.5516 4.79037 4.50819 4.64726 4.50819 4.50086C4.50819 4.30456 4.58617 4.11629 4.72498 3.97749C4.8638 3.83868 5.05206 3.76069 5.24837 3.76069ZM9.68943 9.68209C9.54303 9.68209 9.39995 9.63867 9.27819 9.55734C9.15647 9.47601 9.0616 9.36041 9.00558 9.22516C8.94956 9.08991 8.9349 8.94109 8.96346 8.79751C8.99202 8.65393 9.06251 8.52205 9.16603 8.41853C9.26954 8.31502 9.40143 8.24452 9.54497 8.21596C9.6886 8.1874 9.8374 8.20206 9.97263 8.25808C10.108 8.3141 10.2235 8.40897 10.3048 8.53069C10.3862 8.65241 10.4296 8.79552 10.4296 8.94192C10.4296 9.13822 10.3516 9.32648 10.2128 9.46529C10.074 9.6041 9.88568 9.68209 9.68943 9.68209ZM10.2149 5.02639L5.77388 9.46743C5.70508 9.53681 5.62322 9.59187 5.53302 9.62945C5.44282 9.66703 5.34608 9.68638 5.24837 9.68638C5.15065 9.68638 5.05391 9.66703 4.96371 9.62945C4.87352 9.59187 4.79165 9.53681 4.72284 9.46743C4.65346 9.39863 4.5984 9.31676 4.56082 9.22657C4.52324 9.13637 4.5039 9.03962 4.5039 8.94192C4.5039 8.8442 4.52324 8.74745 4.56082 8.65726C4.5984 8.56706 4.65346 8.4852 4.72284 8.41639L9.16388 3.97535C9.30326 3.83597 9.49226 3.75767 9.68943 3.75767C9.88651 3.75767 10.0756 3.83597 10.2149 3.97535C10.3543 4.11472 10.4326 4.30376 10.4326 4.50086C10.4326 4.69798 10.3543 4.88701 10.2149 5.02639Z" fill="#77777E"/>
</svg>
