<svg width="41" height="41" viewBox="0 0 41 41" fill="none" xmlns="http://www.w3.org/2000/svg">
<g clip-path="url(#clip0_222_3292)">
<path d="M39.6001 20.8999C39.6001 10.1304 30.8696 1.3999 20.1001 1.3999C9.33055 1.3999 0.600098 10.1304 0.600098 20.8999C0.600098 31.6695 9.33055 40.3999 20.1001 40.3999C30.8696 40.3999 39.6001 31.6695 39.6001 20.8999Z" fill="#EFFBFC" stroke="#00B5B7"/>
<mask id="mask0_222_3292" style="mask-type:alpha" maskUnits="userSpaceOnUse" x="10" y="11" width="20" height="20">
<rect x="10" y="11" width="20" height="20" fill="#D9D9D9"/>
</mask>
<g mask="url(#mask0_222_3292)">
<path d="M14.1667 29.3333C13.7083 29.3333 13.316 29.1701 12.9896 28.8437C12.6632 28.5173 12.5 28.1249 12.5 27.6666V17.6666C12.5 17.2083 12.6632 16.8159 12.9896 16.4895C13.316 16.1631 13.7083 15.9999 14.1667 15.9999H15.8333C15.8333 14.8471 16.2396 13.8645 17.0521 13.052C17.8646 12.2395 18.8472 11.8333 20 11.8333C21.1528 11.8333 22.1354 12.2395 22.9479 13.052C23.7604 13.8645 24.1667 14.8471 24.1667 15.9999H25.8333C26.2917 15.9999 26.684 16.1631 27.0104 16.4895C27.3368 16.8159 27.5 17.2083 27.5 17.6666V27.6666C27.5 28.1249 27.3368 28.5173 27.0104 28.8437C26.684 29.1701 26.2917 29.3333 25.8333 29.3333H14.1667ZM14.1667 27.6666H25.8333V17.6666H14.1667V27.6666ZM20 22.6666C21.1528 22.6666 22.1354 22.2603 22.9479 21.4478C23.7604 20.6353 24.1667 19.6527 24.1667 18.4999H22.5C22.5 19.1944 22.2569 19.7846 21.7708 20.2708C21.2847 20.7569 20.6944 20.9999 20 20.9999C19.3056 20.9999 18.7153 20.7569 18.2292 20.2708C17.7431 19.7846 17.5 19.1944 17.5 18.4999H15.8333C15.8333 19.6527 16.2396 20.6353 17.0521 21.4478C17.8646 22.2603 18.8472 22.6666 20 22.6666ZM17.5 15.9999H22.5C22.5 15.3055 22.2569 14.7152 21.7708 14.2291C21.2847 13.743 20.6944 13.4999 20 13.4999C19.3056 13.4999 18.7153 13.743 18.2292 14.2291C17.7431 14.7152 17.5 15.3055 17.5 15.9999Z" fill="#00B5B7"/>
</g>
</g>
<defs>
<clipPath id="clip0_222_3292">
<rect width="40" height="40" fill="white" transform="translate(0.100098 0.899902)"/>
</clipPath>
</defs>
</svg>
