<svg width="21" height="21" viewBox="0 0 21 21" fill="none" xmlns="http://www.w3.org/2000/svg">
<path d="M17.9199 9.13325C17.9199 14.9666 10.4199 19.9666 10.4199 19.9666C10.4199 19.9666 2.91992 14.9666 2.91992 9.13325C2.91992 7.14413 3.7101 5.23647 5.11662 3.82995C6.52314 2.42343 8.4308 1.63325 10.4199 1.63325C12.409 1.63325 14.3167 2.42343 15.7232 3.82995C17.1297 5.23647 17.9199 7.14413 17.9199 9.13325Z" fill="#77777E"/>
<path d="M10.4199 11.6333C11.8006 11.6333 12.9199 10.514 12.9199 9.13325C12.9199 7.75254 11.8006 6.63325 10.4199 6.63325C9.03921 6.63325 7.91992 7.75254 7.91992 9.13325C7.91992 10.514 9.03921 11.6333 10.4199 11.6333Z" fill="white" stroke="white" stroke-width="2" stroke-linecap="round" stroke-linejoin="round"/>
</svg>
