<svg width="17" height="19" viewBox="0 0 17 19" fill="none" xmlns="http://www.w3.org/2000/svg">
<path d="M1.69995 5.40157H3.16695H14.903" stroke="#77777E" stroke-width="1.375" stroke-linecap="round" stroke-linejoin="round"/>
<path d="M5.36822 5.40197V3.93497C5.36822 3.5459 5.52278 3.17276 5.7979 2.89764C6.07301 2.62253 6.44615 2.46797 6.83522 2.46797H9.76922C10.1583 2.46797 10.5315 2.62253 10.8066 2.89764C11.0817 3.17276 11.2363 3.5459 11.2363 3.93497V5.40197M13.4368 5.40197V15.671C13.4368 16.06 13.2822 16.4332 13.0071 16.7083C12.732 16.9834 12.3588 17.138 11.9698 17.138H4.63472C4.24565 17.138 3.87251 16.9834 3.5974 16.7083C3.32228 16.4332 3.16772 16.06 3.16772 15.671V5.40197H13.4368Z" stroke="#77777E" stroke-width="1.375" stroke-linecap="round" stroke-linejoin="round"/>
<path d="M6.83472 9.06758V13.4686" stroke="#77777E" stroke-width="1.375" stroke-linecap="round" stroke-linejoin="round"/>
<path d="M9.76831 9.06758V13.4686" stroke="#77777E" stroke-width="1.375" stroke-linecap="round" stroke-linejoin="round"/>
</svg>
