<svg width="16" height="16" viewBox="0 0 16 16" fill="none" xmlns="http://www.w3.org/2000/svg">
<path fill-rule="evenodd" clip-rule="evenodd" d="M4.41245 13.3934C4.95509 13.3934 5.39665 13.8342 5.39665 14.3769C5.39665 14.9195 4.95509 15.3611 4.41245 15.3611C3.86981 15.3611 3.42901 14.9195 3.42901 14.3769C3.42901 13.8342 3.86981 13.3934 4.41245 13.3934ZM12.9855 13.3934C13.5289 13.3934 13.9704 13.8342 13.9704 14.3769C13.9704 14.9195 13.5289 15.3611 12.9855 15.3611C12.4428 15.3611 12.002 14.9195 12.002 14.3769C12.002 13.8342 12.4428 13.3934 12.9855 13.3934ZM1.16284 0.517189L2.74364 0.790789C2.99824 0.835629 3.19204 1.04691 3.21408 1.30531L3.39268 3.43407L4.05681 3.43435C4.16519 3.4344 4.27241 3.43445 4.37849 3.4345L5.59777 3.43508C5.69496 3.43513 5.79106 3.43517 5.88608 3.43522L7.23236 3.43596C7.31695 3.43601 7.40048 3.43606 7.48301 3.43611L8.42648 3.43671C8.50118 3.43676 8.57498 3.43681 8.64786 3.43687L9.47763 3.43747C9.54314 3.43753 9.60774 3.43758 9.67151 3.43763L10.395 3.43825C10.4519 3.4383 10.508 3.43836 10.5632 3.43841L11.0387 3.43888C11.0891 3.43893 11.1388 3.43899 11.1877 3.43904L11.7384 3.43968C11.7813 3.43973 11.8236 3.43978 11.8651 3.43984L12.3301 3.44049C12.3661 3.44054 12.4014 3.4406 12.4362 3.44065L12.7317 3.44115C12.7627 3.4412 12.793 3.44126 12.8228 3.44131L13.1519 3.44198C13.1771 3.44203 13.2017 3.44209 13.2258 3.44215L13.4284 3.44265C13.4494 3.44271 13.4698 3.44276 13.4898 3.44282L13.707 3.44351C13.7233 3.44356 13.7391 3.44362 13.7545 3.44368L13.8821 3.4442C13.895 3.44426 13.9076 3.44431 13.9198 3.44438L14.0487 3.44507C14.0582 3.44513 14.0672 3.4452 14.0759 3.44526L14.1462 3.44579C14.1532 3.44585 14.1598 3.44591 14.1661 3.44597L14.2168 3.44651C14.2217 3.44656 14.2263 3.44662 14.2308 3.44669L14.2653 3.44723C14.2684 3.44729 14.2716 3.44735 14.2744 3.44741L14.2962 3.44797C14.2982 3.44803 14.3001 3.44809 14.3018 3.44815L14.3175 3.4489L14.3203 3.44909C14.3276 3.44977 14.3299 3.45003 14.3299 3.45003C14.7532 3.51159 15.1256 3.73275 15.3794 4.07323C15.6333 4.41295 15.7397 4.83171 15.6789 5.25123L14.9576 10.2353C14.8216 11.1838 13.9977 11.899 13.0401 11.899H4.74016C3.73924 11.899 2.89184 11.1177 2.81052 10.1183L2.11436 1.83883L0.969044 1.64123C0.658204 1.58651 0.450724 1.29239 0.503924 0.981549C0.558644 0.670709 0.858844 0.468549 1.16284 0.517189ZM3.90435 4.57433L3.48844 4.57407L3.94672 10.0248C3.98016 10.4443 4.32292 10.759 4.74168 10.759H13.0386C13.4346 10.759 13.7728 10.4641 13.829 10.0727L14.551 5.08783C14.5677 4.96927 14.5381 4.85071 14.4659 4.75495C14.3945 4.65843 14.2896 4.59611 14.171 4.57939C14.1655 4.57959 14.1524 4.57979 14.132 4.57997L14.0493 4.58044C14.0321 4.58051 14.013 4.58057 13.9923 4.58064L13.5618 4.58129C13.5255 4.58131 13.4877 4.58134 13.4486 4.58136L12.4362 4.58131C12.3798 4.5813 12.3222 4.58127 12.2636 4.58124L11.1084 4.58054C11.0391 4.58049 10.9691 4.58044 10.8985 4.58038L10.2448 4.57986C10.1703 4.5798 10.0953 4.57974 10.0197 4.57967L9.3273 4.57906C9.2491 4.57899 9.17059 4.57893 9.09163 4.57885L8.61473 4.57841C8.5347 4.57834 8.45437 4.57826 8.37396 4.57819L7.64611 4.5775C7.56494 4.57743 7.48377 4.57735 7.40253 4.57728L6.91567 4.57683C6.83458 4.57675 6.75364 4.57668 6.67285 4.57661L6.19012 4.57617C6.11006 4.57609 6.03023 4.57602 5.95068 4.57595L5.2435 4.57535C5.16604 4.57528 5.08899 4.57522 5.01241 4.57516L4.1187 4.57447C4.04659 4.57443 3.97512 4.57437 3.90435 4.57433ZM11.818 6.24327C12.1326 6.24327 12.388 6.49863 12.388 6.81327C12.388 7.12791 12.1326 7.38327 11.818 7.38327H9.71126C9.39586 7.38327 9.14126 7.12791 9.14126 6.81327C9.14126 6.49863 9.39586 6.24327 9.71126 6.24327H11.818Z" fill="#FF8914"/>
</svg>
